<?xml version="1.0" encoding="utf-8"?>
<!-- Generator: Adobe Illustrator 23.0.0, SVG Export Plug-In . SVG Version: 6.00 Build 0)  -->
<svg version="1.1" id="Capa_1" xmlns="http://www.w3.org/2000/svg" xmlns:xlink="http://www.w3.org/1999/xlink" x="0px" y="0px"
	 viewBox="0 0 580 400" style="enable-background:new 0 0 580 400;" xml:space="preserve">
<style type="text/css">
	.st0{fill:#FFFFFF;}
	.st1{fill:#6D97AB;}
	.st2{font-family:'TimesNewRomanPS-BoldItalicMT';}
	.st3{font-size:541.5378px;}
	.st4{fill:#56AAFF;}
	.st5{font-family:'TimesNewRomanPSMT';}
	.st6{font-size:540.4095px;}
	.st7{font-size:551.1703px;}
	.st8{fill:#84D3DB;}
	.st9{font-size:539.5089px;}
	.st10{fill:#FFFA8D;}
	.st11{fill:#FFAC8D;}
</style>
<g>
	<title>background</title>
	<rect id="canvas_background" x="-1" y="-1" class="st0" width="582" height="402"/>
</g>
<g>
	<title>Layer 1</title>
	<rect id="svg_5" x="-4.5" y="-3.2" width="584.5" height="408.6"/>
	<text id="svg_1" transform="matrix(0.7157 0 0 1 18.1055 373.0479)" class="st1 st2 st3">J</text>
	<text id="svg_2" transform="matrix(0.7036 0 0 1 92.0918 380.751)" class="st4 st5 st6">A</text>
	<text id="svg_3" transform="matrix(0.9362 0 0 1 175.1577 379.9248)" class="st1 st5 st7">T</text>
	<text id="svg_4" transform="matrix(0.629 0 0 1 325.293 371.7402)" class="st8 st5 st9">V</text>
	<path id="svg_6" d="M55.8,179.8c-3.5-1.7-5.5-8.8-5.3-15.3c-0.1-8.4,0.3-17.3-1.8-25c-1.2-5.8-3.3-10.9-4.2-16.9
		c-1.1-9.3,0.3-19.9,4.3-26.2c4.6-7.3,11.9-8.2,17-2c3.6,4.6,6.1,12.1,6,20.3c0.4,6.1-0.9,11.9-2.4,17.2c-1.1,4.2-2.4,8.4-3.4,12.7
		c-0.3,8.8-0.1,17.7-0.8,26.4C64,177.6,59.5,182.2,55.8,179.8L55.8,179.8L55.8,179.8z M65.1,164.1c-2.1-2.1-5.1-0.7-7.5-1.2
		c-2,0.7-5.5-1.5-6.5,1.9c2.4,1.7,5.2,0.4,7.8,0.7C60.9,165.1,63.2,165.8,65.1,164.1L65.1,164.1L65.1,164.1z M64.9,160.1
		c0.3-5.3-4.2-2.6-6-3.4c-2.4,0.9-6.3-1.9-7.8,2.1c0.9,4.1,4.9,1.2,7.1,2.1C60.4,160.8,62.7,161.1,64.9,160.1L64.9,160.1z M65,150.9
		c0.6-10.3,4-18.9,6-28.3c1.6-11.3-1.6-24.2-7.4-28.9c-5.8-5.3-13.5-1.3-16.7,9.1c-3.1,8.6-2.5,20.3,0.5,28.6
		c2.2,7.3,3.9,15.5,3.7,24c4.6,0,9.1,0,13.7,0C64.7,153.8,64.8,152.4,65,150.9L65,150.9z M54.9,136.3c-1.8-5.8-3.7-11.7-4.9-18
		c1.1-2.7,1.5-5.7,1.8-8.9c3.2-1.2-0.4,6.7,2.6,6.9c2.7,2.1,1.5-10.4,3.7-5.9c-1.6,5,3.1,9.9,3.3,2.8c-0.2-5.4,2.8-4.4,1.6,0.5
		c0.1,2.5,2.3,3.2,2.3,5.2c-1.6,6.4-3,12.9-4.8,19c-0.4-2.4,1.7-8.3,2.3-11.7c1.3-3,2.4-11.1-1-10c-1.9,5.6-4.5-3.5-6.4,1.8
		c-1.6,0.9-4.1-5.2-4.6,0.7c1.2,6.9,3.7,12.8,5.1,19.7C55.4,137.9,55.2,137,54.9,136.3L54.9,136.3L54.9,136.3z M52.3,110.9
		C51.5,110.1,52.7,115.1,52.3,110.9L52.3,110.9z M57.6,111.5C56.4,107.9,57.1,115.8,57.6,111.5z M62.7,111.5
		C61.5,107.9,62.1,115.8,62.7,111.5z M39,85.1c-2-3.8-4.2-7.3-6-11.5c4.4,6.7,8.4,14.3,12.3,21.8c1,2.7-1.8-2.5-2.4-3.4
		C41.6,89.7,40.3,87.4,39,85.1L39,85.1z M70.1,95.9c3.4-7.9,6.6-16.1,10.2-23.5c-0.6,3.2-2.6,7-3.8,10.3c-2.1,4.8-4,9.9-6.4,14.1
		C69.8,97.4,69.4,96,70.1,95.9L70.1,95.9L70.1,95.9z M62.7,88.4c1.2-6.2,2.9-12.2,4.8-17.7c0,3.1-2.1,9-3,12.8
		C63.9,85,63.5,87.5,62.7,88.4z M47.7,80.4c-0.8-2.2-3.3-7.4-2.8-8.1c2.4,4.9,4.8,9.9,6.5,15.7C49.9,86,48.8,83,47.7,80.4L47.7,80.4
		z M57.1,78.7c-0.2-2.1,0.3-12,0.6-5.3c0,4.2,0.2,9-0.4,12.8C57,83.8,57.1,81.2,57.1,78.7z"/>
	<path id="svg_7" class="st10" d="M65.6,201.1c-7.7-2.3-12.2-11.9-11.7-20.5c-0.2-11.3,0.7-23.2-4.1-33.6
		c-2.7-7.8-7.4-14.6-9.3-22.7c-2.4-12.6,0.6-26.8,9.5-35.2c10.1-9.8,26.2-11.1,37.4-2.8c7.8,6.1,13.5,16.2,13.3,27.3
		c0.9,8.2-1.9,16-5.3,23.1c-2.4,5.7-5.2,11.3-7.4,17c-0.6,11.8-0.2,23.8-1.8,35.5C83.6,198.1,73.7,204.3,65.6,201.1L65.6,201.1
		L65.6,201.1z M86,179.9c-4.6-2.8-11.2-1-16.5-1.6c-4.4,1-12.1-2-14.4,2.5c5.3,2.3,11.5,0.6,17.1,1C76.7,181.3,81.9,182.3,86,179.9
		L86,179.9L86,179.9z M85.7,174.7c0.7-7.1-9.3-3.5-13.3-4.5c-5.3,1.2-13.8-2.6-17.2,2.8c2,5.5,10.9,1.6,15.5,2.8
		C75.7,175.6,80.8,176,85.7,174.7L85.7,174.7z M85.7,162.2c1.3-13.9,8.8-25.4,13.1-38.1c3.6-15.2-3.5-32.5-16.3-38.9
		c-12.7-7.1-29.6-1.7-36.8,12.2c-6.9,11.6-5.6,27.3,1.2,38.5c4.8,9.8,8.7,20.9,8,32.3c10,0,20,0,30,0
		C85.2,166.2,85.5,164.2,85.7,162.2L85.7,162.2z M63.5,142.6c-4-7.8-8-15.7-10.8-24.2c2.5-3.6,3.2-7.7,4-12c7-1.6-0.9,9,5.7,9.2
		c5.8,2.9,3.3-14,8.1-7.9c-3.5,6.7,6.8,13.3,7.2,3.8c-0.5-7.2,6.2-5.9,3.6,0.7c0.2,3.4,5,4.3,5.1,7c-3.5,8.6-6.5,17.4-10.6,25.6
		c-0.9-3.2,3.6-11.1,5.1-15.8c2.8-4,5.2-14.9-2.1-13.4c-4.3,7.5-10-4.8-14.2,2.5c-3.5,1.2-9.1-7-10.1,0.9
		c2.7,9.3,8.2,17.3,11.1,26.5C64.7,144.7,64.2,143.6,63.5,142.6L63.5,142.6L63.5,142.6z M58,108.4C56,107.3,58.8,114.1,58,108.4
		L58,108.4z M69.5,109.2C67,104.4,68.3,115,69.5,109.2z M80.7,109.2C78.2,104.4,79.5,115,80.7,109.2z M28.6,73.7
		c-4.4-5.1-9.3-9.9-13.2-15.5c9.6,9,18.4,19.2,27.1,29.4c2.3,3.6-4-3.3-5.2-4.5C34.4,80,31.5,76.9,28.6,73.7
		C28.6,73.7,28.6,73.7,28.6,73.7z M97,88.3c7.5-10.6,14.5-21.7,22.5-31.7c-1.4,4.3-5.7,9.5-8.4,13.9c-4.6,6.4-8.8,13.2-14.1,19
		C96.4,90.3,95.4,88.5,97,88.3L97,88.3L97,88.3z M80.8,78.2c2.6-8.4,6.3-16.4,10.5-23.9c-0.1,4.2-4.5,12.1-6.7,17.2
		C83.4,73.7,82.4,77,80.8,78.2z M47.7,67.5c-1.8-3-7.2-9.9-6.2-10.9C46.7,63.2,52,70,55.8,77.8C52.6,75,50.3,71,47.7,67.5L47.7,67.5
		z M68.4,65.1c-0.4-2.8,0.8-16.1,1.4-7.1c0,5.7,0.5,12.1-0.9,17.2C68.3,72,68.5,68.5,68.4,65.1z"/>
	<path id="svg_9" class="st11" d="M558.3,367.3c0,1.5-0.7,2.8-1.6,2.8h-10.3c-0.9,0-1.6-1.3-1.6-2.8v-38c0-1.5,0.7-2.8,1.6-2.8h10.3
		c0.9,0,1.6,1.3,1.6,2.8V367.3z M520,367.3c0,1.5-0.7,2.8-1.6,2.8H508c-0.9,0-1.6-1.3-1.6-2.8v-38c0-1.5,0.7-2.8,1.6-2.8h10.3
		c0.9,0,1.6,1.3,1.6,2.8V367.3z M532.5,264.2c-18.7,0-33.9,26.1-34.1,58.4h5.9c0.2-26.7,12.7-48.2,28.2-48.2
		c15.5,0,28,21.5,28.2,48.2h5.9C566.4,290.2,551.2,264.2,532.5,264.2L532.5,264.2z M498.4,352.1h5.8v-29.6h-5.8V352.1z M560.6,322.5
		v29.6h6v-29.6H560.6z"/>
</g>
</svg>
